# xmcd CD database file
#
# Track frame offsets:
#	150
#	17533
#	33341
#	49746
#	70697
#	84702
#	100460
#	118256
#	139396
#	156667
#
# Disc length: 2295 seconds
#
# Revision: 2
# Processed by: cddbd v1.5.2PL0 Copyright (c) Steve Scherf et al.
# Submitted via: CDex 1.51
#
DISCID=8c08f50a
DTITLE=Werner Bettge Band - Es kommt wie es kommt
DYEAR=2001
DGENRE=Rhythmic Soul
TTITLE0=Fleisch
TTITLE1=Nichts ist mehr gut (gelb)
TTITLE2=Alimente
TTITLE3=Mein Herz
TTITLE4=Keine Frauen
TTITLE5=Alles zu spät
TTITLE6=Schöner als die Nacht
TTITLE7=Es kommt wie es kommt
TTITLE8=Halt dich fest
TTITLE9=Nichts ist mehr gut (blau)
EXTD=YEAR: 2001
EXTT0=
EXTT1=
EXTT2=
EXTT3=
EXTT4=
EXTT5=
EXTT6=
EXTT7=
EXTT8=
EXTT9=
PLAYORDER=
